<?xml version="1.0" encoding="UTF-8"?>
<svg width="54" height="54" enable-background="new 0 0 100 100" version="1.1" viewBox="0 0 54 54" xmlns="http://www.w3.org/2000/svg">
 <path d="m26.95 0c-13.3 0-24.2 10.8-24.2 24.1 0 7.2 3.3 14.1 9.1 18.8l0.2 0.1v5.7c0 3.8 2.4 5.1 4.6 5.1h0.9c0.9 0 1.8-0.3 2.4-0.9 0.9 0.7 2.1 1.1 3.4 1.1 1.5 0 2.8-0.5 3.7-1.4 0.9 0.9 2.2 1.4 3.7 1.4 1.3 0 2.5-0.4 3.4-1.1 0.6 0.6 1.5 0.9 2.4 0.9h0.9c2.1 0 4.7-1.3 4.7-5.1v-6c5.8-4.5 9.1-11.3 9.1-18.8-0.2-13.1-11-23.9-24.3-23.9z" fill="#fff"/>
 <g transform="translate(-23.05,-22.9)">
  <path d="m50 25.9c11.7 0 21.1 9.5 21.1 21.1 0 6.8-3.1 12.9-8.3 16.8l-1.7 1c-0.5 0.3-0.7 0.9-0.4 1.4 0.2 0.3 0.5 0.5 0.8 0.5 0.2 0 0.2 0 0.4-0.2l0.1-0.2v5.5c0 1.3-0.4 2.1-1.7 2.1h-0.9c-0.5 0-0.9-0.5-0.9-1.3s-0.6-1.3-1.4-1.3-1.4 0.6-1.4 1.4-0.9 1.4-2 1.4-2-0.6-2-1.4-0.7-1.4-1.6-1.4-1.6 0.6-1.6 1.4-0.9 1.4-2 1.4-2-0.7-2-1.4c0-0.8-0.6-1.5-1.4-1.5s-1.4 0.6-1.4 1.4-0.4 1.3-0.9 1.3h-0.9c-1.3 0-1.6-0.8-1.6-2.1v-5.5l0.1 0.3c0.2 0.1 0 0.2 0.1 0.2 0.3 0 0.7-0.2 0.9-0.5 0.3-0.5 0.2-1.1-0.3-1.4l-1.9-1.2h-0.1c-4.7-3.9-8-9.8-8-16.5-0.2-11.8 9.3-21.3 20.9-21.3m0-3c-13.3 0-24.2 10.8-24.2 24.1 0 7.2 3.3 14.1 9.1 18.8l0.2 0.1v5.7c0 3.8 2.4 5.1 4.6 5.1h0.9c0.9 0 1.8-0.3 2.4-0.9 0.9 0.7 2.1 1.1 3.4 1.1 1.5 0 2.8-0.5 3.7-1.4 0.9 0.9 2.2 1.4 3.7 1.4 1.3 0 2.5-0.4 3.4-1.1 0.6 0.6 1.5 0.9 2.4 0.9h0.9c2.1 0 4.7-1.3 4.7-5.1v-6c5.8-4.5 9.1-11.3 9.1-18.8-0.2-13.1-11-23.9-24.3-23.9z"/>
  <path d="m51.6 59.7c-0.8-0.9-2.1-0.9-2.9 0s-1.5 1.6-1.5 1.6c-0.2 0.3-0.4 0.8-0.4 1.2 0 1.1 0.8 2 1.8 2 0.7 0 1.2-0.4 1.5-1 0.3 0.6 0.9 1 1.5 1 1 0 1.8-0.9 1.8-2 0-0.5-0.1-0.9-0.4-1.2z"/>
  <path d="m47.1 47.6-10.7-1s-1.1 0-1.4 0.6c-0.5 1-0.8 2-0.8 3.2 0 3.8 3.1 7 7 7s7-3.1 7-7c0-0.8-0.2-1.6-0.4-2.4-0.2-0.3-0.7-0.4-0.7-0.4z"/>
  <path d="m66.1 47.3c-0.3-0.7-1.4-0.6-1.4-0.6l-10.7 1s-0.5 0.1-0.6 0.5c-0.2 0.8-0.4 1.5-0.4 2.4 0 3.8 3.1 7 7 7 3.8 0 7-3.1 7-7-0.1-1.3-0.4-2.3-0.9-3.3z"/>
 </g>
</svg>
